<svg
        version="1.1"
        id="svg2"
        width="2461.3333"
        height="3252"
        viewBox="0 0 2461.3333 3252"
        xmlns="http://www.w3.org/2000/svg">
  <defs id="defs6" />
  <g
          id="g8"
          transform="matrix(1.3333333,0,0,-1.3333333,0,3252)">
    <g id="g10" transform="scale(0.1)">
      <path
              d="m 15324.6,18271.6 -614.1,13.9 -402.7,2926.8 c -67,487.5 -483.6,850.7 -975.8,850.7 H 5228.24 c -480.54,0 -890.94,-346.7 -971.13,-820.6 l -458.87,-2710.8 -658.67,14.9 c -109.84,2.5 -200.19,-85.9 -200.19,-195.7 v -1247.4 c 0,-108.1 87.65,-195.8 195.78,-195.8 h 1374.8 L 5221.8,3202.4 c 14.88,-390.4 247.54,-614.5 638.12,-614.5 l 6759.48,-23.6 c 392.6,0 531.4,269.3 543.6,661.8 l 775.1,13149.4 v 0 l 16.5,532.1 h 1365.6 c 108.1,0 195.7,87.7 195.7,195.8 v 972.5 c 0,106.4 -85,193.3 -191.3,195.7"
              style="fill:#2d4d4a;fill-opacity:1;fill-rule:nonzero;stroke:none"
              id="path12" />
      <path
              d="M 4516.29,16741.4 5039.22,3032.9 c 14.92,-390.4 335.66,-699.2 726.37,-699.2 H 12798 c 392.7,0 714.3,311.8 726.5,704.3 l 413.6,13337.5 -9421.81,365.9"
              style="fill:#0d9488;fill-opacity:1;fill-rule:nonzero;stroke:none"
              id="path14" />
      <path
              d="M 11641,14865 H 6814.34 c -238.52,0 -429.34,-198.2 -420.28,-436.6 l 329.07,-7136.1 c 8.94,-233.3 200.62,-417.8 434.1,-417.8 h 4202.47 c 234.6,0 426.9,186.4 434.1,420.9 l 267.5,7136 c 7.5,237.3 -183,433.6 -420.3,433.6"
              style="fill:#fddeac;fill-opacity:1;fill-rule:nonzero;stroke:none"
              id="path16" />
      <path
              d="m 11485.6,11102.7 c -83.1,253.4 -378.6,687.6 -378.6,687.6 l -680.4,-681.3 485.6,-1038 c -226.9,-85.8 -481.3,-98.6 -720.3,-105.8 -10.5,-0.4 -15.8,-8.8 -15.7,-16.9 -60.6,-2.2 -111.9,-3.3 -147,-3.8 l -57.72,207.3 c -9.37,33.9 -66.32,34.3 -85.15,0.5 l -477.62,-855.9 c -9.37,-16.7 -4.1,-35.4 12.5,-44.8 l 850.19,-483.3 c 33.5,-19.1 82,10.5 72.6,44.4 l -59.7,214.7 c 223.4,42.7 436.5,127.6 613.4,256.1 390.2,283.8 642.7,748.8 668,1230.6 10.5,199.1 -17.9,399.3 -80.1,588.6"
              style="fill:#0d9488;fill-opacity:1;fill-rule:nonzero;stroke:none"
              id="path18" />
      <path
              d="m 9772.27,12119.1 c 31.71,-51.7 57.81,-95.8 75.54,-126.2 l -152.15,-152.2 c -24.88,-24.8 2.86,-74.6 41.45,-74.3 l 980.09,5 c 19.2,0.1 32.9,13.7 32.9,32.9 l 2.8,977.9 c 0.1,38.6 -49.5,66.2 -74.3,41.4 l -157.6,-157.5 c -147.2,173.5 -325.8,317.3 -524.79,408.1 -438.94,200.2 -967.93,191.4 -1399.96,-23.5 -178.48,-88.7 -338.87,-212 -473.16,-359.2 -179.65,-196.9 -412.46,-667.9 -412.46,-667.9 l 927.73,-257.2 665.35,933.4 c 186.13,-155.1 323.01,-372 446.21,-575.6 5.43,-9 15.28,-9.3 22.35,-5.1"
              style="fill:#0d9488;fill-opacity:1;fill-rule:nonzero;stroke:none"
              id="path20" />
      <path
              d="m 7872.15,9992.5 c 24.26,240.5 128.44,477 227.03,690.9 4.41,9.5 -0.51,18.4 -7.58,22.5 25.04,55.2 46.95,101.6 62.23,133.3 l 211.25,-40.9 c 34.53,-6.7 60.19,44.1 38.44,76 l -552.93,809.3 c -10.86,15.8 -29.93,19.4 -45.79,8.7 L 6993.05,11147 c -32,-21.5 -27.15,-78.1 7.38,-84.7 l 218.71,-42.3 c -61.41,-219.1 -80.55,-447.7 -44.3,-663.4 79.89,-475.7 383.44,-909.1 803.29,-1146.7 173.51,-98.2 365.46,-162.1 562.65,-190.9 263.79,-38.5 784.26,32.2 784.26,32.2 l -306.33,912.8 -1146.56,28.5"
              style="fill:#0d9488;fill-opacity:1;fill-rule:nonzero;stroke:none"
              id="path22" />
      <path
              d="m 4509.92,16907.6 6.37,-166.2 9421.81,-365.9 v 0 l 16.5,532.1 H 4509.92"
              style="fill:#48161d;fill-opacity:1;fill-rule:nonzero;stroke:none"
              id="path24" />
      <path
              d="m 4226.99,18488.1 c 616.21,-20.1 1232.54,-36.1 1848.91,-50.4 674.41,-15.5 1348.9,-28.9 2023.36,-41.7 695.39,-13.1 1390.82,-25.6 2086.14,-38.6 679.1,-12.7 1358.2,-25.9 2037.1,-41.1 625.5,-13.9 1251,-29.5 1876.3,-48.9 71.2,-2.2 142.5,-4.5 213.7,-6.8 43.5,-1.5 43.5,66.3 0,67.7 -347.2,11.4 -694.4,21.4 -1041.6,30.5 l -278,1908.1 c -49.7,341.3 -358.5,595.5 -723.2,595.5 H 6263.48 c -356.21,0 -660.35,-242.7 -719.81,-574.3 l -315.74,-1761.7 c -262.46,7 -524.92,14.5 -787.3,22.6 -71.25,2.3 -142.47,4.5 -213.64,6.8 -43.63,1.5 -43.51,-66.3 0,-67.7"
              style="fill:#48161d;fill-opacity:1;fill-rule:nonzero;stroke:none"
              id="path26" />
      <path
              d="m 5343.36,4424.1 c 2.58,-264.7 -7.23,-533.6 25.16,-797 27.42,-223 91.64,-447 244.68,-617.7 345,-384.9 935.71,-314.5 1392.46,-239.4 43.01,7 24.77,72.3 -17.96,65.3 -407.15,-66.9 -930.98,-138 -1267.23,162.7 -179.96,160.9 -255.31,395.9 -284.14,629.1 -31.21,251.9 -22.46,509 -24.85,762.2 -11.56,1189.3 -23.12,2378.6 -34.6,3567.9 -6.49,671.8 -13.01,1343.7 -19.5,2015.6 -0.47,43.6 -68.2,43.7 -67.77,0 11.91,-1235.6 23.91,-2471.2 35.86,-3706.9 6.01,-613.9 11.95,-1227.9 17.89,-1841.8"
              style="fill:#48161d;fill-opacity:1;fill-rule:nonzero;stroke:none"
              id="path28" />
      <path
              d="m 13302,9300.9 c 23.3,834.4 46.6,1668.8 69.9,2503.2 23.3,834.3 46.6,1668.7 69.9,2503.1 13.2,471.3 26.4,942.6 39.5,1413.9 1.2,43.6 -66.5,43.6 -67.7,0 -23.3,-834.4 -46.6,-1668.8 -69.9,-2503.2 -23.4,-834.4 -46.7,-1668.8 -70,-2503.2 -13.2,-471.3 -26.4,-942.6 -39.4,-1413.8 -1.3,-43.6 66.5,-43.6 67.7,0"
              style="fill:#48161d;fill-opacity:1;fill-rule:nonzero;stroke:none"
              id="path30" />
      <path
              d="m 9303.71,12699.8 c 186.13,-155.1 323.01,-372 446.21,-575.6 5.43,-9 15.28,-9.3 22.35,-5.1 6.95,4.1 11.25,12.6 5.78,21.6 -133.87,221.1 -279.69,447.2 -485.32,608.6 -97.1,76.2 -207.93,135.7 -328.86,163.2 -132.97,30.2 -271.21,18 -403.52,-10.5 -146.17,-31.4 -282.22,-92 -398.51,-185.3 -12.89,-8.1 -25.82,-16.5 -38.75,-25.2 -179.65,-196.9 -412.46,-667.9 -412.46,-667.9 l 927.73,-257.2 665.35,933.4"
              style="fill:#48161d;fill-opacity:1;fill-rule:nonzero;stroke:none"
              id="path32" />
      <path
              d="m 10912.2,10071 c -226.9,-85.8 -481.3,-98.6 -720.3,-105.8 -10.5,-0.4 -15.8,-8.8 -15.7,-16.9 0,-8.1 5.3,-16 15.7,-15.7 244.9,7.4 497.7,22.1 729.7,108 244.9,90.7 413.2,259.4 506.2,502.8 63,164.9 88.7,338.7 60.8,512.8 -0.8,15.4 -1.8,30.9 -3,46.5 -83.1,253.4 -378.6,687.6 -378.6,687.6 l -680.4,-681.3 485.6,-1038"
              style="fill:#48161d;fill-opacity:1;fill-rule:nonzero;stroke:none"
              id="path34" />
      <path
              d="m 8071.05,10699.8 c -138,-299.3 -284.33,-639.4 -221.56,-976.2 59.26,-318.3 344.26,-592.7 649.57,-687 13.71,-6 27.62,-11.8 41.72,-17.6 263.79,-38.5 784.26,32.2 784.26,32.2 l -306.33,912.8 -1146.56,28.5 c 24.26,240.5 128.44,477 227.03,690.9 4.41,9.5 -0.51,18.4 -7.58,22.5 -7.03,4.1 -16.17,3.4 -20.55,-6.1"
              style="fill:#48161d;fill-opacity:1;fill-rule:nonzero;stroke:none"
              id="path36" />
      <path
              d="m 4561.13,18777.6 c 161.76,609.7 252.46,1236.9 446.8,1838.6 41.76,129.2 94.8,257.6 177.54,366.4 93.12,122.4 224.73,204.7 367.77,257.4 293.79,108.1 616.99,99 925.35,99.8 414.18,1.2 828.09,-23.8 1242.23,-15.8 43.56,0.9 43.75,68.7 0,67.8 -380.43,-7.4 -760.59,13.1 -1140.94,15.6 -322.26,2.1 -662.22,15.2 -974.22,-78.6 -138.9,-41.7 -276.25,-106.7 -383.75,-205.7 -99.06,-91.3 -168.98,-208.9 -221.25,-331.9 -53.78,-126.8 -90.23,-259.8 -124.96,-392.9 -38.63,-148 -82.11,-294.7 -118.79,-443.2 -94.88,-384.7 -159.45,-776.4 -261.13,-1159.5 -11.21,-42.2 54.14,-60.2 65.35,-18"
              style="fill:#fddeac;fill-opacity:1;fill-rule:nonzero;stroke:none"
              id="path38" />
      <path
              d="m 15048.2,17910.7 c -797.7,15 -1595.3,30.1 -2393,45.2 -793.9,14.9 -1587.7,29.9 -2381.5,44.9 -450.93,8.5 -901.79,17.1 -1352.65,25.6 -43.63,0.8 -43.63,-67 0,-67.8 797.74,-15 1595.35,-30.1 2393.05,-45.2 793.8,-15 1587.7,-30 2381.5,-45 450.9,-8.5 901.8,-17 1352.6,-25.5 43.6,-0.8 43.6,66.9 0,67.8"
              style="fill:#fddeac;fill-opacity:1;fill-rule:nonzero;stroke:none"
              id="path40" />
    </g>
  </g>
</svg>
